<svg width="46" height="46" viewBox="0 0 46 46" fill="none" xmlns="http://www.w3.org/2000/svg">
<path d="M9.58203 34.5811C11.307 32.8881 13.3115 31.5544 15.5956 30.5801C17.8796 29.6058 20.3473 29.1186 22.9987 29.1186C25.6501 29.1186 28.1178 29.6058 30.4018 30.5801C32.6859 31.5544 34.6904 32.8881 36.4154 34.5811V10.1734C36.4154 10.0258 36.3539 9.89064 36.2309 9.76797C36.1082 9.64499 35.9731 9.5835 35.8255 9.5835H10.1719C10.0243 9.5835 9.88918 9.64499 9.76651 9.76797C9.64352 9.89064 9.58203 10.0258 9.58203 10.1734V34.5811ZM27.4109 23.1736C28.6222 21.962 29.2279 20.4912 29.2279 18.7615C29.2279 17.0317 28.6222 15.5609 27.4109 14.3493C26.1992 13.138 24.7285 12.5323 22.9987 12.5323C21.2689 12.5323 19.7982 13.138 18.5865 14.3493C17.3752 15.5609 16.7695 17.0317 16.7695 18.7615C16.7695 20.4912 17.3752 21.962 18.5865 23.1736C19.7982 24.385 21.2689 24.9906 22.9987 24.9906C24.7285 24.9906 26.1992 24.385 27.4109 23.1736ZM10.1719 39.2918C9.20365 39.2918 8.38411 38.9564 7.71328 38.2856C7.04245 37.6147 6.70703 36.7952 6.70703 35.827V10.1734C6.70703 9.20511 7.04245 8.38558 7.71328 7.71475C8.38411 7.04391 9.20365 6.7085 10.1719 6.7085H35.8255C36.7937 6.7085 37.6133 7.04391 38.2841 7.71475C38.9549 8.38558 39.2904 9.20511 39.2904 10.1734V35.827C39.2904 36.7952 38.9549 37.6147 38.2841 38.2856C37.6133 38.9564 36.7937 39.2918 35.8255 39.2918H10.1719ZM11.8379 36.4168H34.1594C32.5328 34.9253 30.7594 33.8153 28.8393 33.0866C26.9188 32.358 24.9719 31.9936 22.9987 31.9936C21.0501 31.9936 19.0996 32.358 17.1471 33.0866C15.195 33.8153 13.4253 34.9253 11.8379 36.4168ZM20.6307 21.1295C19.9732 20.4724 19.6445 19.6831 19.6445 18.7615C19.6445 17.8399 19.9732 17.0505 20.6307 16.3934C21.2878 15.736 22.0771 15.4073 22.9987 15.4073C23.9203 15.4073 24.7096 15.736 25.3667 16.3934C26.0242 17.0505 26.3529 17.8399 26.3529 18.7615C26.3529 19.6831 26.0242 20.4724 25.3667 21.1295C24.7096 21.7869 23.9203 22.1156 22.9987 22.1156C22.0771 22.1156 21.2878 21.7869 20.6307 21.1295Z" fill="white"/>
</svg>
