<svg width="40" height="40" viewBox="0 0 40 40" fill="none" xmlns="http://www.w3.org/2000/svg">
<path d="M10.0396 28.8207C11.4563 27.7696 12.9996 26.9395 14.6696 26.3303C16.3394 25.7214 18.1166 25.417 20.0013 25.417C21.886 25.417 23.6632 25.7214 25.333 26.3303C27.003 26.9395 28.5463 27.7696 29.963 28.8207C30.9991 27.6819 31.8201 26.3635 32.4259 24.8657C33.0317 23.368 33.3346 21.7462 33.3346 20.0003C33.3346 16.3059 32.036 13.16 29.4388 10.5628C26.8416 7.9656 23.6957 6.66699 20.0013 6.66699C16.3069 6.66699 13.161 7.9656 10.5638 10.5628C7.96658 13.16 6.66797 16.3059 6.66797 20.0003C6.66797 21.7462 6.97089 23.368 7.57672 24.8657C8.18255 26.3635 9.00352 27.6819 10.0396 28.8207ZM20.0017 21.2503C18.4801 21.2503 17.1969 20.7281 16.1521 19.6837C15.1071 18.6389 14.5846 17.3557 14.5846 15.8341C14.5846 14.3124 15.1069 13.0292 16.1513 11.9845C17.196 10.9395 18.4792 10.417 20.0009 10.417C21.5226 10.417 22.8057 10.9392 23.8505 11.9837C24.8955 13.0284 25.418 14.3116 25.418 15.8332C25.418 17.3549 24.8957 18.6381 23.8513 19.6828C22.8066 20.7278 21.5234 21.2503 20.0017 21.2503ZM20.0013 35.8337C17.8027 35.8337 15.7402 35.4202 13.8138 34.5932C11.8874 33.7663 10.2117 32.6402 8.78672 31.2149C7.36144 29.7899 6.23533 28.1142 5.40839 26.1878C4.58144 24.2614 4.16797 22.1989 4.16797 20.0003C4.16797 17.8017 4.58144 15.7392 5.40839 13.8128C6.23533 11.8864 7.36144 10.2107 8.78672 8.78574C10.2117 7.36046 11.8874 6.23435 13.8138 5.40741C15.7402 4.58047 17.8027 4.16699 20.0013 4.16699C22.1999 4.16699 24.2624 4.58047 26.1888 5.40741C28.1152 6.23435 29.7909 7.36046 31.2159 8.78574C32.6412 10.2107 33.7673 11.8864 34.5942 13.8128C35.4212 15.7392 35.8346 17.8017 35.8346 20.0003C35.8346 22.1989 35.4212 24.2614 34.5942 26.1878C33.7673 28.1142 32.6412 29.7899 31.2159 31.2149C29.7909 32.6402 28.1152 33.7663 26.1888 34.5932C24.2624 35.4202 22.1999 35.8337 20.0013 35.8337ZM20.0013 33.3337C21.5055 33.3337 22.9557 33.0917 24.3521 32.6078C25.7485 32.1237 26.9884 31.4469 28.0717 30.5774C26.9884 29.7396 25.7646 29.0869 24.4005 28.6191C23.036 28.151 21.5696 27.917 20.0013 27.917C18.433 27.917 16.9639 28.1482 15.5942 28.6107C14.2245 29.0735 13.0034 29.7291 11.9309 30.5774C13.0142 31.4469 14.2541 32.1237 15.6505 32.6078C17.0469 33.0917 18.4971 33.3337 20.0013 33.3337ZM20.0013 18.7503C20.8305 18.7503 21.5238 18.4714 22.0813 17.9137C22.6391 17.3562 22.918 16.6628 22.918 15.8337C22.918 15.0045 22.6391 14.3112 22.0813 13.7537C21.5238 13.1959 20.8305 12.917 20.0013 12.917C19.1721 12.917 18.4788 13.1959 17.9213 13.7537C17.3635 14.3112 17.0846 15.0045 17.0846 15.8337C17.0846 16.6628 17.3635 17.3562 17.9213 17.9137C18.4788 18.4714 19.1721 18.7503 20.0013 18.7503Z" fill="#1E1F20"/>
</svg>
