<svg width="46" height="46" viewBox="0 0 46 46" fill="none" xmlns="http://www.w3.org/2000/svg">
<path d="M23.0013 41.2082C20.485 41.2082 18.1194 40.7296 15.9044 39.7726C13.689 38.8155 11.7618 37.5175 10.1227 35.8784C8.48367 34.2393 7.18561 32.3121 6.22855 30.0968C5.2715 27.8817 4.79297 25.5161 4.79297 22.9998C4.79297 20.4836 5.2715 18.1179 6.22855 15.9029C7.18561 13.6876 8.48367 11.7603 10.1227 10.1213C11.7618 8.4822 13.689 7.18414 15.9044 6.22709C18.1194 5.27003 20.485 4.7915 23.0013 4.7915C25.5176 4.7915 27.8832 5.27003 30.0982 6.22709C32.3136 7.18414 34.2408 8.4822 35.8799 10.1213C37.5189 11.7603 38.817 13.6876 39.7741 15.9029C40.7311 18.1179 41.2096 20.4836 41.2096 22.9998V25.3367C41.2096 27.0863 40.6088 28.5717 39.407 29.793C38.2056 31.0142 36.7301 31.6248 34.9805 31.6248C33.85 31.6248 32.8019 31.3484 31.8362 30.7954C30.8705 30.2424 30.1075 29.4818 29.5472 28.5136C28.7192 29.5017 27.7407 30.2672 26.6118 30.8103C25.4826 31.3533 24.2791 31.6248 23.0013 31.6248C20.608 31.6248 18.5722 30.7857 16.8938 29.1073C15.2155 27.4289 14.3763 25.3931 14.3763 22.9998C14.3763 20.6066 15.2155 18.5707 16.8938 16.8924C18.5722 15.214 20.608 14.3748 23.0013 14.3748C25.3946 14.3748 27.4304 15.214 29.1088 16.8924C30.7871 18.5707 31.6263 20.6066 31.6263 22.9998V25.3367C31.6263 26.2778 31.9501 27.082 32.5976 27.7493C33.2451 28.4163 34.0394 28.7498 34.9805 28.7498C35.9216 28.7498 36.7159 28.4163 37.3634 27.7493C38.0109 27.082 38.3346 26.2778 38.3346 25.3367V22.9998C38.3346 18.7193 36.8492 15.0936 33.8784 12.1228C30.9076 9.15192 27.2819 7.6665 23.0013 7.6665C18.7207 7.6665 15.0951 9.15192 12.1242 12.1228C9.15339 15.0936 7.66797 18.7193 7.66797 22.9998C7.66797 27.2804 9.15339 30.9061 12.1242 33.8769C15.0951 36.8478 18.7207 38.3332 23.0013 38.3332H32.5846V41.2082H23.0013ZM27.0742 27.0728C28.1923 25.9547 28.7513 24.5971 28.7513 22.9998C28.7513 21.4026 28.1923 20.045 27.0742 18.9269C25.9562 17.8089 24.5985 17.2498 23.0013 17.2498C21.4041 17.2498 20.0464 17.8089 18.9284 18.9269C17.8103 20.045 17.2513 21.4026 17.2513 22.9998C17.2513 24.5971 17.8103 25.9547 18.9284 27.0728C20.0464 28.1908 21.4041 28.7498 23.0013 28.7498C24.5985 28.7498 25.9562 28.1908 27.0742 27.0728Z" fill="white"/>
</svg>
