<svg width="46" height="46" viewBox="0 0 46 46" fill="none" xmlns="http://www.w3.org/2000/svg">
<path d="M37.2592 39.2918C33.6472 39.2918 30.0185 38.452 26.373 36.7724C22.7278 35.0927 19.3786 32.7234 16.3253 29.6644C13.2724 26.6051 10.9061 23.2557 9.22649 19.6163C7.54685 15.9772 6.70703 12.3516 6.70703 8.73968C6.70703 8.15925 6.8987 7.67561 7.28203 7.28877C7.66536 6.90192 8.14453 6.7085 8.71953 6.7085H14.9707C15.4547 6.7085 15.8816 6.86646 16.2516 7.18239C16.6215 7.498 16.8567 7.88804 16.9574 8.35252L18.0561 13.9918C18.1321 14.5151 18.1161 14.9647 18.0082 15.3407C17.8999 15.7167 17.7057 16.0324 17.4255 16.288L12.999 20.5971C13.7113 21.9018 14.5253 23.1359 15.4408 24.2997C16.356 25.4631 17.3469 26.5743 18.4136 27.6332C19.4652 28.6852 20.5832 29.662 21.7677 30.5638C22.9522 31.4656 24.2313 32.3048 25.6049 33.0814L29.9059 28.743C30.2058 28.4309 30.5691 28.2121 30.9955 28.0865C31.4216 27.9613 31.8646 27.9306 32.3242 27.9945L37.6463 29.0784C38.1303 29.2062 38.5253 29.4531 38.8313 29.8192C39.1373 30.1853 39.2904 30.6005 39.2904 31.065V37.2793C39.2904 37.8543 39.0969 38.3335 38.7101 38.7168C38.3232 39.1002 37.8396 39.2918 37.2592 39.2918ZM11.6386 17.8769L15.0594 14.6037C15.1207 14.5545 15.1606 14.487 15.1792 14.401C15.1977 14.3151 15.1947 14.2352 15.1701 14.1615L14.3368 9.87818C14.3122 9.78012 14.2692 9.70648 14.2079 9.65729C14.1466 9.60809 14.0667 9.5835 13.9683 9.5835H9.86953C9.79574 9.5835 9.73425 9.60809 9.68505 9.65729C9.63618 9.70648 9.61174 9.76798 9.61174 9.84177C9.70981 11.1515 9.92416 12.482 10.2548 13.8332C10.5851 15.1848 11.0464 16.5327 11.6386 17.8769ZM28.3136 34.4412C29.584 35.0335 30.9091 35.4863 32.2888 35.7997C33.6688 36.1127 34.9582 36.2988 36.1571 36.3579C36.2309 36.3579 36.2924 36.3333 36.3416 36.2841C36.3908 36.2349 36.4154 36.1734 36.4154 36.0996V32.0674C36.4154 31.969 36.3908 31.8892 36.3416 31.8278C36.2924 31.7665 36.2187 31.7236 36.1207 31.699L32.0957 30.8805C32.0219 30.8559 31.9574 30.8529 31.9021 30.8714C31.8468 30.89 31.7884 30.9299 31.7267 30.9912L28.3136 34.4412Z" fill="white"/>
</svg>
