<svg width="23" height="23" viewBox="0 0 23 23" fill="none" xmlns="http://www.w3.org/2000/svg">
<path fill-rule="evenodd" clip-rule="evenodd" d="M11.5005 0C5.15008 0 0 5.14865 0 11.5005C0 16.2083 2.83188 20.2549 6.88515 22.033C6.85256 21.2309 6.8794 20.2654 7.084 19.3919C7.30538 18.4585 8.56319 13.1263 8.56319 13.1263C8.56319 13.1263 8.19663 12.3917 8.19663 11.3059C8.19663 9.60202 9.18563 8.32935 10.4147 8.32935C11.4602 8.32935 11.9657 9.11519 11.9657 10.0563C11.9657 11.1071 11.2949 12.6802 10.9499 14.1364C10.6624 15.3578 11.5613 16.3516 12.765 16.3516C14.9438 16.3516 16.4115 13.5532 16.4115 10.2374C16.4115 7.71794 14.7138 5.83146 11.6265 5.83146C8.13865 5.83146 5.96515 8.4319 5.96515 11.3371C5.96515 12.3405 6.26031 13.0463 6.72271 13.593C6.93642 13.8455 6.96469 13.9457 6.88754 14.2351C6.8334 14.445 6.70642 14.9562 6.65371 15.1575C6.57704 15.4483 6.34129 15.5538 6.07871 15.4455C4.4711 14.7895 3.72312 13.0305 3.72312 11.0515C3.72312 7.7855 6.47833 3.8664 11.9418 3.8664C16.3329 3.8664 19.2227 7.04615 19.2227 10.4549C19.2227 14.9668 16.7153 18.3372 13.0166 18.3372C11.7765 18.3372 10.6083 17.6664 10.2077 16.9045C10.2077 16.9045 9.53973 19.5543 9.39885 20.0651C9.15544 20.9516 8.67819 21.838 8.24167 22.528C9.27619 22.8337 10.3692 23 11.5005 23C17.8514 23 23 17.8514 23 11.5005C23 5.14865 17.8514 0 11.5005 0Z" fill="#5C5C5C"/>
</svg>
