<svg width="23" height="23" viewBox="0 0 23 23" fill="none" xmlns="http://www.w3.org/2000/svg">
<path d="M5.35381 7.39941H0.736519C0.638133 7.39941 0.543775 7.4385 0.474206 7.50807C0.404636 7.57764 0.365552 7.67199 0.365552 7.77038V22.6037C0.365552 22.7021 0.404636 22.7965 0.474206 22.8661C0.543775 22.9356 0.638133 22.9747 0.736519 22.9747H5.35381C5.45219 22.9747 5.54655 22.9356 5.61612 22.8661C5.68569 22.7965 5.72477 22.7021 5.72477 22.6037V7.77038C5.72477 7.67199 5.68569 7.57764 5.61612 7.50807C5.54655 7.4385 5.45219 7.39941 5.35381 7.39941ZM3.04683 0.0253906C1.36679 0.0253906 0 1.3907 0 3.06888C0 4.74781 1.36679 6.11364 3.04683 6.11364C4.72554 6.11364 6.09122 4.74774 6.09122 3.06888C6.09129 1.3907 4.72554 0.0253906 3.04683 0.0253906ZM17.0982 7.03075C15.2437 7.03075 13.8729 7.82795 13.0414 8.73378V7.77038C13.0414 7.67199 13.0023 7.57764 12.9327 7.50807C12.8631 7.4385 12.7688 7.39941 12.6704 7.39941H8.24854C8.15016 7.39941 8.0558 7.4385 7.98623 7.50807C7.91666 7.57764 7.87757 7.67199 7.87757 7.77038V22.6037C7.87757 22.7021 7.91666 22.7965 7.98623 22.8661C8.0558 22.9356 8.15016 22.9747 8.24854 22.9747H12.8557C12.9541 22.9747 13.0485 22.9356 13.1181 22.8661C13.1876 22.7965 13.2267 22.7021 13.2267 22.6037V15.2647C13.2267 12.7916 13.8985 11.8281 15.6224 11.8281C17.5 11.8281 17.6492 13.3727 17.6492 15.3919V22.6038C17.6492 22.7022 17.6882 22.7966 17.7578 22.8661C17.8274 22.9357 17.9217 22.9748 18.0201 22.9748H22.629C22.7274 22.9748 22.8218 22.9357 22.8913 22.8661C22.9609 22.7966 23 22.7022 23 22.6038V14.4675C23 10.7901 22.2988 7.03075 17.0982 7.03075Z" fill="#5C5C5C"/>
</svg>
