<svg width="23" height="23" viewBox="0 0 23 23" fill="none" xmlns="http://www.w3.org/2000/svg">
<path fill-rule="evenodd" clip-rule="evenodd" d="M9.12525 14.5047L9.12477 7.99666L15.3386 11.2617L9.12525 14.5047ZM22.77 6.8687C22.77 6.8687 22.5448 5.27308 21.8557 4.56966C20.9813 3.64678 20.0004 3.64247 19.5514 3.58928C16.3329 3.35449 11.5048 3.35449 11.5048 3.35449H11.4952C11.4952 3.35449 6.66712 3.35449 3.44856 3.58928C2.99863 3.64199 2.01873 3.64678 1.14377 4.56918C0.453771 5.2726 0.23 6.8687 0.23 6.8687C0.23 6.8687 0 8.74368 0 10.6177V12.3753C0 14.2498 0.23 16.1238 0.23 16.1238C0.23 16.1238 0.45425 17.7199 1.14329 18.4228C2.01873 19.3457 3.16825 19.317 3.68 19.4133C5.52 19.5911 11.5 19.6462 11.5 19.6462C11.5 19.6462 16.3329 19.639 19.5514 19.4042C20.0009 19.35 20.9813 19.3457 21.8557 18.4228C22.5453 17.7199 22.77 16.1238 22.77 16.1238C22.77 16.1238 23 14.2503 23 12.3753V10.6177C23 8.74368 22.77 6.8687 22.77 6.8687Z" fill="#5C5C5C"/>
</svg>
