<svg width="23" height="23" viewBox="0 0 23 23" fill="none" xmlns="http://www.w3.org/2000/svg">
<path fill-rule="evenodd" clip-rule="evenodd" d="M11.5 0C8.37679 0 7.98531 0.0134167 6.75865 0.069C5.53437 0.125062 4.69823 0.319604 3.96702 0.60375C3.2109 0.897479 2.56929 1.29087 1.93056 1.93008C1.2904 2.56929 0.897 3.2109 0.60375 3.9675C0.319604 4.69871 0.124583 5.53437 0.069 6.75865C0.0134167 7.98531 0 8.37679 0 11.5C0 14.6232 0.0134167 15.0147 0.069 16.2414C0.125062 17.4656 0.319604 18.3018 0.60375 19.033C0.897479 19.7891 1.29087 20.4307 1.93008 21.0694C2.56929 21.7091 3.2109 22.1025 3.96702 22.3967C4.69871 22.6804 5.53437 22.8749 6.75865 22.931C7.98531 22.9866 8.37679 23 11.5 23C14.6232 23 15.0147 22.9866 16.2414 22.931C17.4656 22.8749 18.3018 22.6804 19.033 22.3962C19.7891 22.1025 20.4307 21.7091 21.0694 21.0699C21.7091 20.4307 22.1025 19.7891 22.3967 19.033C22.6804 18.3013 22.8749 17.4656 22.931 16.2414C22.9866 15.0147 23 14.6232 23 11.5C23 8.37679 22.9866 7.98531 22.931 6.75865C22.8749 5.53437 22.6804 4.69823 22.3962 3.96702C22.1025 3.2109 21.7091 2.56929 21.0699 1.93056C20.4307 1.29087 19.7891 0.897479 19.033 0.60375C18.3013 0.319604 17.4656 0.124583 16.2414 0.069C15.0147 0.0134167 14.6232 0 11.5 0ZM11.5 2.07192C14.5705 2.07192 14.9342 2.0839 16.147 2.139C17.2682 2.19027 17.8767 2.37762 18.2826 2.53527C18.8193 2.74371 19.2026 2.99287 19.6046 3.39538C20.0071 3.79787 20.2563 4.18121 20.4647 4.71788C20.6229 5.12277 20.8097 5.73179 20.861 6.85304C20.9161 8.06533 20.9281 8.4295 20.9281 11.5C20.9281 14.5705 20.9161 14.9342 20.861 16.147C20.8097 17.2682 20.6224 17.8767 20.4647 18.2826C20.2563 18.8193 20.0071 19.2026 19.6046 19.6046C19.2021 20.0071 18.8188 20.2563 18.2821 20.4647C17.8772 20.6229 17.2682 20.8097 16.147 20.861C14.9347 20.9161 14.5705 20.9281 11.5 20.9281C8.42902 20.9281 8.06533 20.9161 6.85304 20.861C5.73179 20.8097 5.12325 20.6224 4.7174 20.4647C4.18073 20.2563 3.7974 20.0071 3.39538 19.6046C2.99287 19.2021 2.74371 18.8188 2.53527 18.2821C2.37715 17.8772 2.19027 17.2682 2.139 16.147C2.0839 14.9347 2.07192 14.5705 2.07192 11.5C2.07192 8.4295 2.0839 8.06581 2.139 6.85304C2.19027 5.73179 2.37762 5.12325 2.53527 4.7174C2.74371 4.18073 2.99287 3.7974 3.39538 3.39538C3.79787 2.99287 4.18121 2.74371 4.71788 2.53527C5.12277 2.37715 5.73179 2.19027 6.85304 2.139C8.06533 2.0839 8.4295 2.07192 11.5 2.07192ZM11.5 5.59475C8.23831 5.59475 5.59475 8.23831 5.59475 11.5C5.59475 14.7617 8.23831 17.4053 11.5 17.4053C14.7617 17.4053 17.4053 14.7617 17.4053 11.5C17.4053 8.23831 14.7617 5.59475 11.5 5.59475ZM11.5 15.3333C10.4833 15.3333 9.50831 14.9295 8.78942 14.2106C8.07053 13.4917 7.66667 12.5167 7.66667 11.5C7.66667 10.4833 8.07053 9.50831 8.78942 8.78942C9.50831 8.07053 10.4833 7.66667 11.5 7.66667C12.5167 7.66667 13.4917 8.07053 14.2106 8.78942C14.9295 9.50831 15.3333 10.4833 15.3333 11.5C15.3333 12.5167 14.9295 13.4917 14.2106 14.2106C13.4917 14.9295 12.5167 15.3333 11.5 15.3333ZM19.0186 5.3614C19.0186 5.72739 18.8732 6.0784 18.6144 6.3372C18.3556 6.596 18.0046 6.7414 17.6386 6.7414C17.2726 6.7414 16.9216 6.596 16.6628 6.3372C16.404 6.0784 16.2586 5.72739 16.2586 5.3614C16.2586 4.9954 16.404 4.64439 16.6628 4.38559C16.9216 4.12679 17.2726 3.9814 17.6386 3.9814C18.0046 3.9814 18.3556 4.12679 18.6144 4.38559C18.8732 4.64439 19.0186 4.9954 19.0186 5.3614Z" fill="#5C5C5C"/>
</svg>
