<svg xmlns="http://www.w3.org/2000/svg" width="400" height="300" viewBox="0 0 400 300" fill="none">
  <path d="M42.534 276.656C33.7208 215.585 23.1504 154.136 12.1114 93.39L4.55078 98.5896C30.2334 115.153 56.1413 131.346 81.9862 147.63C133.252 179.521 186.735 212.332 238.677 242.809C265 258.344 291.484 273.601 318.239 288.443C280.616 262.174 242.39 236.897 203.938 211.909C137.145 168.554 68.1536 125.345 0 84.1623L2.2889 95.3004C14.7607 155.776 27.8814 216.712 42.534 276.656Z" fill="#F2F2F2"/>
  <path d="M356.836 276.656C371.488 216.721 384.618 155.767 397.081 95.3004L399.37 84.1623C331.216 125.345 262.225 168.554 195.432 211.909C156.98 236.897 118.754 262.174 81.1307 288.443C107.886 273.61 134.379 258.344 160.693 242.809C212.59 212.359 266.145 179.503 317.384 147.63C343.238 131.346 369.146 115.153 394.819 98.5896L387.258 93.39C376.219 154.145 365.649 215.567 356.836 276.656Z" fill="#F2F2F2"/>
  <path d="M343.373 300C299.19 200.198 249.41 98.1617 201.145 0C164.378 73.245 124.602 153.122 89.7997 226.917C78.4002 251.212 66.9647 275.489 55.9888 299.991C69.1995 276.606 81.9507 252.996 94.729 229.404C131.46 161.17 170.876 84.7166 206.11 15.1933L196.054 15.1573C243.165 109.714 292.629 207.642 343.373 299.991V300Z" fill="#F2F2F2"/>
</svg>