<svg width="46" height="46" viewBox="0 0 46 46" fill="none" xmlns="http://www.w3.org/2000/svg">
<path d="M23.0013 32.0561C26.1517 29.4021 28.5365 26.838 30.1557 24.3635C31.775 21.8891 32.5846 19.5708 32.5846 17.4084C32.5846 14.558 31.6902 12.2218 29.9013 10.3997C28.1124 8.57756 25.8124 7.6665 23.0013 7.6665C20.1902 7.6665 17.8902 8.57756 16.1013 10.3997C14.3124 12.2218 13.418 14.558 13.418 17.4084C13.418 19.5708 14.2276 21.8891 15.8469 24.3635C17.4661 26.838 19.8509 29.4021 23.0013 32.0561ZM23.0013 35.6978C18.8533 32.4861 15.74 29.3488 13.6614 26.286C11.5824 23.2228 10.543 20.2636 10.543 17.4084C10.543 13.7224 11.7029 10.698 14.0227 8.33542C16.3422 5.97281 19.335 4.7915 23.0013 4.7915C26.6676 4.7915 29.6604 5.97281 31.9799 8.33542C34.2997 10.698 35.4596 13.7224 35.4596 17.4084C35.4596 20.2636 34.4202 23.2196 32.3412 26.2764C30.2626 29.3335 27.1493 32.4739 23.0013 35.6978ZM23.0013 20.7147C23.9571 20.7147 24.7734 20.3761 25.4503 19.6989C26.1275 19.022 26.4662 18.2056 26.4662 17.2498C26.4662 16.2941 26.1275 15.4777 25.4503 14.8008C24.7734 14.1236 23.9571 13.785 23.0013 13.785C22.0455 13.785 21.2292 14.1236 20.5523 14.8008C19.8751 15.4777 19.5364 16.2941 19.5364 17.2498C19.5364 18.2056 19.8751 19.022 20.5523 19.6989C21.2292 20.3761 22.0455 20.7147 23.0013 20.7147ZM10.543 41.2082V38.3332H35.4596V41.2082H10.543Z" fill="white"/>
</svg>
