<svg width="40" height="40" viewBox="0 0 40 40" fill="none" xmlns="http://www.w3.org/2000/svg">
<path d="M32.569 34.2954L22.101 23.827C21.2677 24.5151 20.3094 25.0535 19.226 25.4424C18.1427 25.8313 17.022 26.0258 15.864 26.0258C13.0153 26.0258 10.6045 25.0395 8.63146 23.067C6.6584 21.0945 5.67188 18.6842 5.67188 15.8362C5.67188 12.9884 6.65812 10.5773 8.63062 8.60285C10.6031 6.62869 13.0134 5.6416 15.8615 5.6416C18.7092 5.6416 21.1203 6.62813 23.0948 8.60118C25.069 10.5742 26.056 12.9851 26.056 15.8337C26.056 17.024 25.8563 18.1608 25.4569 19.2441C25.0572 20.3274 24.524 21.2697 23.8573 22.0708L34.3252 32.5387L32.569 34.2954ZM15.864 23.5262C18.0115 23.5262 19.8303 22.7809 21.3206 21.2904C22.8112 19.8001 23.5565 17.9812 23.5565 15.8337C23.5565 13.6862 22.8112 11.8673 21.3206 10.377C19.8303 8.88646 18.0115 8.14118 15.864 8.14118C13.7165 8.14118 11.8976 8.88646 10.4073 10.377C8.91674 11.8673 8.17146 13.6862 8.17146 15.8337C8.17146 17.9812 8.91674 19.8001 10.4073 21.2904C11.8976 22.7809 13.7165 23.5262 15.864 23.5262Z" fill="#1E1F20"/>
</svg>
