<svg width="40" height="40" viewBox="0 0 40 40" fill="none" xmlns="http://www.w3.org/2000/svg">
<path d="M10.5129 35.8332C9.67097 35.8332 8.95833 35.5415 8.375 34.9582C7.79167 34.3748 7.5 33.6622 7.5 32.8203V13.8461C7.5 13.0041 7.79167 12.2915 8.375 11.7082C8.95833 11.1248 9.67097 10.8332 10.5129 10.8332H13.75V10.4165C13.75 8.69011 14.36 7.21678 15.58 5.9965C16.8003 4.7765 18.2736 4.1665 20 4.1665C21.7264 4.1665 23.1997 4.7765 24.42 5.9965C25.64 7.21678 26.25 8.69011 26.25 10.4165V10.8332H29.4871C30.329 10.8332 31.0417 11.1248 31.625 11.7082C32.2083 12.2915 32.5 13.0041 32.5 13.8461V32.8203C32.5 33.6622 32.2083 34.3748 31.625 34.9582C31.0417 35.5415 30.329 35.8332 29.4871 35.8332H10.5129ZM10.5129 33.3332H29.4871C29.6154 33.3332 29.7329 33.2797 29.8396 33.1728C29.9465 33.0661 30 32.9486 30 32.8203V13.8461C30 13.7178 29.9465 13.6003 29.8396 13.4936C29.7329 13.3866 29.6154 13.3332 29.4871 13.3332H26.25V17.0832C26.25 17.4379 26.1303 17.7348 25.8908 17.974C25.6517 18.2134 25.3547 18.3332 25 18.3332C24.6453 18.3332 24.3483 18.2134 24.1092 17.974C23.8697 17.7348 23.75 17.4379 23.75 17.0832V13.3332H16.25V17.0832C16.25 17.4379 16.1303 17.7348 15.8908 17.974C15.6517 18.2134 15.3547 18.3332 15 18.3332C14.6453 18.3332 14.3483 18.2134 14.1092 17.974C13.8697 17.7348 13.75 17.4379 13.75 17.0832V13.3332H10.5129C10.3846 13.3332 10.2671 13.3866 10.1604 13.4936C10.0535 13.6003 10 13.7178 10 13.8461V32.8203C10 32.9486 10.0535 33.0661 10.1604 33.1728C10.2671 33.2797 10.3846 33.3332 10.5129 33.3332ZM16.25 10.8332H23.75V10.4165C23.75 9.37178 23.3863 8.48553 22.6588 7.75775C21.9313 7.03025 21.045 6.6665 20 6.6665C18.955 6.6665 18.0688 7.03025 17.3413 7.75775C16.6138 8.48553 16.25 9.37178 16.25 10.4165V10.8332Z" fill="#1E1F20"/>
</svg>
