<svg width="242" height="42" viewBox="0 0 242 42" fill="none" xmlns="http://www.w3.org/2000/svg">
<path d="M49.4099 38.7326C50.6303 30.1825 52.0938 21.5797 53.6225 13.0754L54.6696 13.8035C51.1132 16.1222 47.5259 18.3894 43.9475 20.6693C36.8491 25.134 29.4433 29.7278 22.2513 33.9945C18.6065 36.1693 14.9394 38.3053 11.2347 40.3833C16.4444 36.7056 21.7372 33.167 27.0616 29.6684C36.3101 23.5988 45.8631 17.5497 55.3 11.7839L54.9831 13.3431C53.256 21.8099 51.4392 30.3408 49.4103 38.733L49.4099 38.7326Z" fill="#1E1F20"/>
<path d="M5.88969 38.7326C3.86077 30.3416 2.04272 21.8081 0.316951 13.3427L0 11.7835C9.43695 17.5492 18.9899 23.5984 28.2384 29.668C33.5628 33.1665 38.8556 36.7052 44.0653 40.3829C40.3606 38.3062 36.6922 36.1693 33.0487 33.9941C25.8628 29.7312 18.4474 25.1314 11.3525 20.6689C7.77242 18.389 4.18505 16.1222 0.630453 13.8031L1.67747 13.0749C3.20617 21.5805 4.66975 30.1799 5.89012 38.7321L5.88969 38.7326Z" fill="#1E1F20"/>
<path d="M7.75388 42C13.8717 28.0278 20.7644 13.7425 27.4475 0C32.5386 10.2544 38.0462 21.4371 42.8652 31.7683C44.4435 35.1695 46.0269 38.5682 47.547 41.9987C45.7177 38.7247 43.9523 35.4194 42.183 32.1166C37.0971 22.5637 31.6395 11.8602 26.7606 2.12684L28.153 2.12161C21.6299 15.3596 14.7807 29.0694 7.75431 41.9983V41.9996L7.75388 42Z" fill="#1E1F20"/>
<path d="M88.2573 12.3978L75.8686 25.5338V27.5482L81.6298 21.5051L90.1965 12.3978H88.2573ZM79.8406 27.4374L78.8618 28.459L88.2914 37.3452L90.2651 37.3801L79.8406 27.4379V27.4374ZM71.6305 37.3801H73.0441V12.3978H71.6305V37.3801Z" fill="#1E1F20"/>
<path d="M109.259 12.3978H107.742L108.515 14.2225L118.36 37.3831H119.877L109.259 12.4009V12.3978H109.259ZM106.235 15.946L97.1177 37.3801H98.6723L107.01 17.7707L106.238 15.946H106.235Z" fill="#1E1F20"/>
<path d="M126.943 37.3801V12.3978H128.357V37.3801H126.943Z" fill="#1E1F20"/>
<path d="M226.877 25.7488H218.144V24.3195H226.877V25.7488Z" fill="#1E1F20"/>
<path d="M137.552 27.3585V36.9341H138.965V27.3585H137.552Z" fill="#1E1F20"/>
<path d="M146.653 27.3585H144.533L151.066 36.9498H153.187L146.653 27.3585Z" fill="#1E1F20"/>
<path d="M205.8 12.3978V24.889C205.8 30.6442 203.635 35.1412 198.74 35.8528V37.2946C204.739 36.5482 207.213 30.9952 207.213 24.889V12.3978H205.8ZM188.854 24.892V12.3978H187.447V24.889C187.447 30.9987 189.918 36.5482 195.916 37.2946V35.8558C191.019 35.1443 188.857 30.6473 188.857 24.892H188.854Z" fill="#1E1F20"/>
<path d="M168.878 15.4272L159.733 36.931H161.288L169.657 17.2488L168.882 15.4241L168.878 15.4272H168.878ZM171.878 11.9548H170.361L171.133 13.7795L180.979 36.9402H182.496L171.877 11.9579V11.9548H171.878Z" fill="#1E1F20"/>
<path d="M231.19 11.351V12.7802H228.031C224.5 12.7802 221.301 13.8711 218.983 15.854C216.665 17.837 215.236 20.7177 215.236 24.2877H213.835C213.835 20.7177 215.27 17.4825 217.582 15.139C219.899 12.7959 223.093 11.3505 226.63 11.3505H231.19L231.19 11.351Z" fill="#1E1F20"/>
<path d="M213.835 37.9713V36.5421H216.993C220.524 36.5421 223.724 35.4512 226.042 33.4682C228.359 31.4853 229.789 28.6046 229.789 25.0346H231.19C231.19 28.6046 229.754 31.8398 227.443 34.1833C225.132 36.5264 221.932 37.9718 218.394 37.9718H213.834L213.835 37.9713Z" fill="#1E1F20"/>
<path d="M152.758 19.2758C152.758 21.1572 152.005 22.862 150.785 24.095C149.884 25.0058 148.736 25.6572 147.444 25.9354H137.555V24.6609H145.958C147.428 24.6609 148.776 24.0571 149.758 23.08C150.737 22.1029 151.35 20.7587 151.35 19.2693C151.35 16.2935 148.908 13.8776 145.961 13.8776H137.623V12.4484H146.027C149.749 12.4484 152.767 15.5 152.767 19.2632L152.758 19.2728V19.2758H152.758Z" fill="#1E1F20"/>
<path d="M237.694 4.96562C241.071 4.72844 243.233 8.5012 241.231 11.2838C239.226 14.0633 235.101 13.2319 234.238 10.0124C233.568 7.62787 235.261 5.12651 237.697 4.96519H237.694L237.694 4.96562ZM237.969 5.60132C235.298 5.6423 233.765 8.73838 235.335 10.9236C236.711 12.8717 239.579 12.7893 240.837 10.7654C242.25 8.50119 240.602 5.56033 237.969 5.60132Z" fill="#1E1F20"/>
<path d="M237.418 9.57333V10.5661C237.418 10.5661 237.378 10.645 237.34 10.6865C237.184 10.8857 236.831 10.8068 236.79 10.5661V7.42906C236.79 7.27079 236.909 7.15088 237.024 7.15088C237.85 7.2298 238.832 6.87271 239.342 7.7456C239.695 8.34031 239.461 9.13689 238.869 9.45343L239.498 10.3673C239.617 10.7248 239.301 10.962 238.988 10.7248L238.204 9.57377H237.419L237.418 9.57333ZM238.322 8.93764C239.107 8.93764 239.07 7.70766 238.322 7.70766H237.378V8.93764H238.322Z" fill="#1E1F20"/>
</svg>
